# File created by Blade
# Date/Time:  Thu Sep 25 19:43:58 2014
# Frame Rate: 120.000 fps
#------------------------------------------------------
:FULLY-SPECIFIED
:DEGREES
917
root 2.513005 14.516068 -10.394541 21.908716 33.318513 -17.020732
Spine 12.282716 9.616063 -37.244693
Head 17.971611 -12.230959 2.210679
LeftShoulder 6.271336 3.615226 16.366888
LeftArm 33.659691 11.611349 -35.071128
LeftForeArm 23.979610 -0.000000 20.726071
LeftHand -35.947770 0.000000 99.326650
LeftHandThumb1 -26.253704 0.000000 33.147579
RightShoulder -13.041572 25.592514 -46.687734
RightArm 69.019001 40.601981 44.346138
RightForeArm 26.708197 -0.000000 23.348931
RightHand 3.806171 0.000000 -5.733944
RightHandThumb1 -24.326973 -0.000000 -32.862282
LeftUpLeg -137.786126 33.386235 -11.980100
LeftLeg 117.273155 -0.000000 -0.000000
LeftFoot -20.513601 -29.909946 -4.979145
LeftToeBase 9.622703 -0.000000 -0.000000
RightUpLeg 0.260771 -29.214847 -39.413394
RightLeg 8.634129 -0.000000 -0.000000
RightFoot 5.936932 -28.776945 -2.449305
RightToeBase 7.731658 -0.000000 -0.000000
918
root 2.522854 14.502828 -10.378069 21.874033 33.274419 -17.003117
Spine 12.276704 9.692177 -37.261633
Head 17.772551 -12.212644 2.171485
LeftShoulder 6.236994 3.574940 16.329421
LeftArm 33.600641 11.622658 -35.106739
LeftForeArm 24.089126 -0.000000 20.815539
LeftHand -35.953093 -0.000000 99.364194
LeftHandThumb1 -26.253704 0.000000 33.147579
RightShoulder -13.070334 25.599684 -46.698661
RightArm 69.030997 40.562066 44.451506
RightForeArm 26.610388 -0.000000 23.425342
RightHand 3.857087 -0.000000 -5.669734
RightHandThumb1 -24.326973 -0.000000 -32.862282
LeftUpLeg -137.789714 33.455844 -12.012131
LeftLeg 117.357978 -0.000000 -0.000000
LeftFoot -20.564999 -29.858367 -4.846471
LeftToeBase 9.691985 -0.000000 -0.000000
RightUpLeg 0.314811 -29.225719 -39.481346
RightLeg 8.638779 -0.000000 -0.000000
RightFoot 5.868522 -28.736056 -2.334199
RightToeBase 7.725727 -0.000000 -0.000000
919
root 2.531494 14.488987 -10.359560 21.810735 33.243188 -17.011004
Spine 12.282294 9.768599 -37.244186
Head 17.598384 -12.133667 2.104526
LeftShoulder 6.191565 3.623672 16.308003
LeftArm 33.586741 11.585273 -35.132825
LeftForeArm 24.166176 -0.000000 20.929263
LeftHand -35.879195 -0.000000 99.245592
LeftHandThumb1 -26.253704 0.000000 33.147579
RightShoulder -13.069760 25.662446 -46.708452
RightArm 68.958021 40.503134 44.424436
RightForeArm 26.565765 -0.000000 23.463585
RightHand 3.867770 -0.000000 -5.799895
RightHandThumb1 -24.326973 -0.000000 -32.862282
LeftUpLeg -137.759348 33.542646 -11.979282
LeftLeg 117.450976 -0.000000 -0.000000
LeftFoot -20.635190 -29.871025 -4.739948
LeftToeBase 9.766222 -0.000000 -0.000000
RightUpLeg 0.415768 -29.306138 -39.539795
RightLeg 8.589461 -0.000000 -0.000000
RightFoot 5.915271 -28.609394 -2.371799
RightToeBase 7.672769 -0.000000 -0.000000
920
root 2.538853 14.475413 -10.346257 21.782102 33.207718 -17.023335
Spine 12.251910 9.830305 -37.206935
Head 17.446475 -12.060943 2.000319
LeftShoulder 6.194842 3.593880 16.259500
LeftArm 33.506695 11.619662 -35.164773
LeftForeArm 24.236950 -0.000000 21.009578
LeftHand -35.893260 0.000000 99.278235
LeftHandThumb1 -26.253704 0.000000 33.147579
RightShoulder -13.063976 25.714005 -46.729725
RightArm 68.906394 40.455878 44.414676
RightForeArm 26.584310 -0.000000 23.507531
RightHand 3.913869 -0.000000 -5.689576
RightHandThumb1 -24.326973 -0.000000 -32.862282
LeftUpLeg -137.755338 33.608372 -11.938382
LeftLeg 117.537188 -0.000000 -0.000000
LeftFoot -20.709953 -29.841611 -4.666180
LeftToeBase 9.766405 -0.000000 -0.000000
RightUpLeg 0.402604 -29.203578 -39.558316
RightLeg 8.675539 -0.000000 -0.000000
RightFoot 5.824900 -28.675769 -2.244971
RightToeBase 7.755210 -0.000000 -0.000000
921
root 2.547372 14.461887 -10.333012 21.770465 33.155711 -17.014509
Spine 12.210391 9.890039 -37.199757
Head 17.271916 -11.962307 1.906600
LeftShoulder 6.187773 3.523638 16.222461
LeftArm 33.406133 11.684524 -35.213935
LeftForeArm 24.281294 -0.000000 21.080806
LeftHand -35.857103 -0.000000 99.289705
LeftHandThumb1 -26.253704 0.000000 33.147579
RightShoulder -13.042979 25.716904 -46.715100
RightArm 68.866282 40.436608 44.272114
RightForeArm 26.747263 -0.000000 23.454042
RightHand 3.957593 0.000000 -5.757542
RightHandThumb1 -24.326973 -0.000000 -32.862282
LeftUpLeg -137.775552 33.683912 -11.954652
LeftLeg 117.624728 -0.000000 -0.000000
LeftFoot -20.764638 -29.819512 -4.567616
LeftToeBase 9.746064 -0.000000 -0.000000
RightUpLeg 0.394833 -29.113959 -39.597307
RightLeg 8.722310 -0.000000 -0.000000
RightFoot 5.767851 -28.730206 -2.113066
RightToeBase 7.779062 -0.000000 -0.000000
922
root 2.556644 14.447796 -10.317840 21.736203 33.108020 -17.003287
Spine 12.198017 9.978413 -37.179074
Head 17.080845 -11.865333 1.795833
LeftShoulder 6.198643 3.510139 16.167069
LeftArm 33.397896 11.729133 -35.205202
LeftForeArm 24.323102 -0.000000 21.071224
LeftHand -35.954942 -0.000000 99.419231
LeftHandThumb1 -26.253704 0.000000 33.147579
RightShoulder -13.035532 25.722064 -46.743572
RightArm 68.853564 40.448441 44.319844
RightForeArm 26.765899 -0.000000 23.519183
RightHand 3.876320 -0.000000 -5.867377
RightHandThumb1 -24.326973 -0.000000 -32.862282
LeftUpLeg -137.764817 33.766759 -11.951240
LeftLeg 117.715917 -0.000000 -0.000000
LeftFoot -20.837166 -29.826650 -4.452223
LeftToeBase 9.782964 -0.000000 -0.000000
RightUpLeg 0.424312 -29.059233 -39.654099
RightLeg 8.751675 -0.000000 -0.000000
RightFoot 5.768030 -28.736295 -2.088897
RightToeBase 7.707128 -0.000000 -0.000000
923
root 2.564680 14.433856 -10.303215 21.710724 33.058133 -17.003775
Spine 12.163665 10.049152 -37.148622
Head 16.900271 -11.741248 1.676043
LeftShoulder 6.191898 3.512052 16.121141
LeftArm 33.379635 11.745747 -35.237766
LeftForeArm 24.370989 -0.000000 21.077606
LeftHand -35.976525 -0.000000 99.427803
LeftHandThumb1 -26.253704 0.000000 33.147579
RightShoulder -13.031580 25.701281 -46.760073
RightArm 68.967990 40.474395 44.494679
RightForeArm 26.752470 -0.000000 23.570941
RightHand 3.881769 0.000000 -5.901559
RightHandThumb1 -24.326973 -0.000000 -32.862282
LeftUpLeg -137.768799 33.857683 -11.941419
LeftLeg 117.816964 -0.000000 -0.000000
LeftFoot -20.985588 -29.815876 -4.155143
LeftToeBase 9.848591 -0.000000 -0.000000
RightUpLeg 0.435056 -28.998919 -39.690146
RightLeg 8.778430 -0.000000 -0.000000
RightFoot 5.750404 -28.742577 -2.069854
RightToeBase 7.696615 -0.000000 -0.000000
924
root 2.573719 14.419256 -10.287177 21.684752 33.018285 -16.987175
Spine 12.150610 10.116135 -37.136372
Head 16.693956 -11.602416 1.621504
LeftShoulder 6.175778 3.496186 16.109876
LeftArm 33.371683 11.769367 -35.311205
LeftForeArm 24.452504 -0.000000 21.049989
LeftHand -36.001961 -0.000000 99.432173
LeftHandThumb1 -26.253704 0.000000 33.147579
RightShoulder -13.031479 25.661500 -46.758804
RightArm 69.096773 40.514012 44.648560
RightForeArm 26.778626 -0.000000 23.600521
RightHand 3.903127 -0.000000 -5.845797
RightHandThumb1 -24.326973 -0.000000 -32.862282
LeftUpLeg -137.778508 33.920100 -11.957333
LeftLeg 117.897815 -0.000000 -0.000000
LeftFoot -20.986725 -29.809418 -4.121159
LeftToeBase 10.053500 -0.000000 -0.000000
RightUpLeg 0.485005 -29.005175 -39.753655
RightLeg 8.777633 -0.000000 -0.000000
RightFoot 5.728209 -28.711869 -2.043402
RightToeBase 7.658615 -0.000000 -0.000000
925
root 2.581933 14.404864 -10.272416 21.668412 32.997321 -16.974514
Spine 12.140144 10.145572 -37.107942
Head 16.481827 -11.426480 1.595223
LeftShoulder 6.138696 3.504643 16.072821
LeftArm 33.380502 11.791660 -35.346365
LeftForeArm 24.470459 -0.000000 21.029094
LeftHand -35.970312 -0.000000 99.433125
LeftHandThumb1 -26.253704 0.000000 33.147579
RightShoulder -13.041824 25.650393 -46.776285
RightArm 69.205289 40.525432 44.774445
RightForeArm 26.820900 -0.000000 23.622967
RightHand 3.897535 0.000000 -5.860091
RightHandThumb1 -24.326973 -0.000000 -32.862282
LeftUpLeg -137.774841 33.970977 -11.943030
LeftLeg 117.990954 -0.000000 -0.000000
LeftFoot -21.096253 -29.742372 -3.769598
LeftToeBase 9.824279 -0.000000 -0.000000
RightUpLeg 0.530471 -29.031803 -39.804120
RightLeg 8.787764 -0.000000 -0.000000
RightFoot 5.707059 -28.687915 -2.065768
RightToeBase 7.709744 -0.000000 -0.000000
926
root 2.591325 14.390629 -10.257211 21.653951 32.977863 -16.951034
Spine 12.125404 10.158952 -37.098802
Head 16.320731 -11.256625 1.575588
LeftShoulder 6.103157 3.522364 16.053387
LeftArm 33.382061 11.813529 -35.399278
LeftForeArm 24.390470 -0.000000 20.995424
LeftHand -35.851388 -0.000000 99.491108
LeftHandThumb1 -26.253704 0.000000 33.147579
RightShoulder -13.021477 25.652038 -46.787669
RightArm 69.311235 40.558785 44.983005
RightForeArm 26.705030 -0.000000 23.730206
RightHand 3.850977 -0.000000 -5.855928
RightHandThumb1 -24.326973 -0.000000 -32.862282
LeftUpLeg -137.773443 34.013503 -11.938417
LeftLeg 118.077680 -0.000000 -0.000000
LeftFoot -21.138989 -29.703394 -3.562446
LeftToeBase 9.656436 -0.000000 -0.000000
RightUpLeg 0.588319 -29.064075 -39.868315
RightLeg 8.794225 -0.000000 -0.000000
RightFoot 5.687435 -28.646484 -2.081145
RightToeBase 7.716729 -0.000000 -0.000000
927
root 2.600997 14.376312 -10.241921 21.643898 32.968845 -16.943331
Spine 12.092563 10.180862 -37.062382
Head 16.199017 -11.146426 1.479553
LeftShoulder 6.092484 3.547280 16.005995
LeftArm 33.367131 11.826021 -35.426974
LeftForeArm 24.433970 -0.000000 21.000060
LeftHand -35.861641 -0.000000 99.524814
LeftHandThumb1 -26.253704 0.000000 33.147579
RightShoulder -13.026156 25.655665 -46.796821
RightArm 69.415386 40.550649 45.143595
RightForeArm 26.619802 -0.000000 23.808158
RightHand 3.829713 -0.000000 -5.849173
RightHandThumb1 -24.326973 -0.000000 -32.862282
LeftUpLeg -137.781511 34.043359 -11.922178
LeftLeg 118.166777 -0.000000 -0.000000
LeftFoot -21.203530 -29.661575 -3.415612
LeftToeBase 9.541097 -0.000000 -0.000000
RightUpLeg 0.641041 -29.087872 -39.909610
RightLeg 8.791196 -0.000000 -0.000000
RightFoot 5.649714 -28.629117 -2.046678
RightToeBase 7.724798 -0.000000 -0.000000
928
root 2.610508 14.362447 -10.225941 21.629811 32.952115 -16.933175
Spine 12.053695 10.204614 -37.054477
Head 16.066276 -10.981602 1.586512
LeftShoulder 6.062499 3.582912 16.011211
LeftArm 33.357749 11.812413 -35.508427
LeftForeArm 24.472612 0.000000 20.987974
LeftHand -35.714306 -0.000000 99.478213
LeftHandThumb1 -26.253704 0.000000 33.147579
RightShoulder -12.989794 25.662559 -46.756359
RightArm 69.484902 40.565621 45.221579
RightForeArm 26.561464 -0.000000 23.863873
RightHand 3.814972 -0.000000 -5.841099
RightHandThumb1 -24.326973 -0.000000 -32.862282
LeftUpLeg -137.790789 34.081959 -11.911055
LeftLeg 118.240512 -0.000000 -0.000000
LeftFoot -21.193500 -29.661556 -3.475497
LeftToeBase 9.717976 -0.000000 -0.000000
RightUpLeg 0.691050 -29.078472 -39.953191
RightLeg 8.793970 -0.000000 -0.000000
RightFoot 5.658883 -28.618876 -2.084414
RightToeBase 7.630101 -0.000000 -0.000000
929
root 2.620285 14.347634 -10.208809 21.604450 32.929161 -16.926800
Spine 12.025338 10.246722 -37.041148
Head 15.921026 -10.871211 1.627801
LeftShoulder 6.052027 3.574458 15.987209
LeftArm 33.334229 11.849908 -35.556794
LeftForeArm 24.583423 -0.000000 20.988001
LeftHand -35.839103 -0.000000 99.633245
LeftHandThumb1 -26.253704 0.000000 33.147579
RightShoulder -12.970071 25.668209 -46.711028
RightArm 69.524974 40.570566 45.213254
RightForeArm 26.545482 0.000000 23.898392
RightHand 3.835144 0.000000 -5.824733
RightHandThumb1 -24.326973 -0.000000 -32.862282
LeftUpLeg -137.788696 34.140314 -11.896607
LeftLeg 118.332623 -0.000000 -0.000000
LeftFoot -21.282168 -29.626611 -3.292765
LeftToeBase 9.584193 -0.000000 -0.000000
RightUpLeg 0.756744 -29.060952 -40.004774
RightLeg 8.777163 -0.000000 -0.000000
RightFoot 5.633556 -28.595748 -2.024235
RightToeBase 7.696291 -0.000000 -0.000000
